<?xml version="1.0" standalone="no"?>
<!DOCTYPE svg PUBLIC "-//W3C//DTD SVG 1.1//EN" "http://www.w3.org/Graphics/SVG/1.1/DTD/svg11.dtd" >
<svg xmlns="http://www.w3.org/2000/svg">
<metadata></metadata>
<defs>
<font id="graphiklight" horiz-adv-x="1640" >
<font-face units-per-em="2048" ascent="1675" descent="-373" />
<missing-glyph horiz-adv-x="505" />
<glyph horiz-adv-x="0" />
<glyph horiz-adv-x="682" />
<glyph unicode=" "  horiz-adv-x="505" />
<glyph unicode="&#x09;" horiz-adv-x="505" />
<glyph unicode="&#xa0;" horiz-adv-x="505" />
<glyph unicode="!" horiz-adv-x="555" d="M190 76q0 37 26 62.5t63 25.5q35 0 60.5 -25.5t25.5 -62.5q0 -35 -25.5 -60.5t-60.5 -25.5q-37 0 -63 25.5t-26 60.5zM219 1464h121l-16 -1097h-86z" />
<glyph unicode="&#x22;" horiz-adv-x="624" d="M119 1464h119l-19 -428h-82zM387 1464h119l-19 -428h-81z" />
<glyph unicode="#" horiz-adv-x="1007" d="M63 604v92h199l47 322h-188v92h201l53 354h92l-53 -354h245l54 354h92l-53 -354h190v-92h-203l-47 -322h193v-92h-207l-57 -401h-93l58 401h-246l-57 -401h-93l58 401h-185zM354 696h246l47 322h-246z" />
<glyph unicode="$" horiz-adv-x="1241" d="M88 420h111q10 -70 33 -125t65 -103.5t113.5 -77.5t169.5 -36v643q-224 38 -330.5 126.5t-106.5 250.5q0 164 121.5 269.5t315.5 113.5v184h82v-186q180 -12 289 -107.5t132 -259.5h-104q-50 254 -317 274v-579q246 -40 354 -128t108 -280q0 -172 -127.5 -290 t-334.5 -125v-260h-82v262q-121 6 -212.5 42t-148 96.5t-88.5 133.5t-43 162zM250 1106q0 -118 71 -185t259 -102v567q-154 -6 -242 -80t-88 -200zM662 76q160 7 256 95t96 220q0 145 -77.5 213.5t-274.5 102.5v-631z" />
<glyph unicode="%" horiz-adv-x="1568" d="M82 1141q0 144 95 239t226 95q133 0 226.5 -94t93.5 -236q0 -146 -94.5 -238t-225.5 -92q-130 0 -225.5 91.5t-95.5 234.5zM184 1141q0 -112 62 -176t157 -64q97 0 158.5 65t61.5 179q0 111 -62 177.5t-158 66.5q-95 0 -157 -66.5t-62 -181.5zM264 0l934 1464h102 l-931 -1464h-105zM844 313q0 145 94 239.5t225 94.5q133 0 227.5 -94t94.5 -236q0 -146 -95.5 -238.5t-226.5 -92.5q-129 0 -224 92t-95 235zM944 313q0 -112 62.5 -175.5t156.5 -63.5q97 0 158 64.5t61 178.5q0 111 -61 176.5t-158 65.5q-95 0 -157 -66t-62 -180z" />
<glyph unicode="&#x26;" horiz-adv-x="1357" d="M100 381q0 82 28 151.5t81 123t110.5 92.5t135.5 77q-77 95 -113.5 171t-36.5 157q0 143 97 231.5t235 88.5q132 0 217.5 -84.5t85.5 -210.5q0 -228 -332 -375l363 -426l196 364h105l-240 -442l256 -299h-135l-186 217q-176 -231 -430 -231q-197 0 -317 110t-120 285z M211 391q0 -142 88 -227.5t242 -85.5q213 0 366 211l-399 473q-65 -32 -114 -65.5t-93 -78t-67 -102t-23 -125.5zM412 1153q0 -67 35 -132t112 -157q139 65 208 137.5t69 178.5q0 90 -55 147t-148 57q-96 0 -158.5 -62.5t-62.5 -168.5z" />
<glyph unicode="'" horiz-adv-x="356" d="M119 1464h119l-19 -428h-82z" />
<glyph unicode="(" horiz-adv-x="612" d="M113 639q0 287 92.5 524.5t245.5 419.5h110q-155 -193 -244.5 -422t-89.5 -522t89.5 -521t244.5 -421h-110q-338 402 -338 942z" />
<glyph unicode=")" horiz-adv-x="612" d="M53 -299q155 193 244.5 422t89.5 520q0 293 -89.5 522t-244.5 422h109q154 -181 246 -418.5t92 -525.5t-92 -524.5t-246 -417.5h-109z" />
<glyph unicode="*" horiz-adv-x="854" d="M94 1243l31 90l262 -104l-8 293h98l-8 -293l262 104l29 -90l-271 -82l185 -239l-76 -56l-172 250l-170 -250l-76 56l185 239z" />
<glyph unicode="+" horiz-adv-x="1044" d="M74 653v95h399v428h98v-428h400v-95h-400v-428h-98v428h-399z" />
<glyph unicode="," horiz-adv-x="468" d="M68 -203l157 375l107 -49l-191 -363z" />
<glyph unicode="-" horiz-adv-x="681" d="M127 516v102h428v-102h-428z" />
<glyph unicode="." horiz-adv-x="468" d="M147 76q0 37 25.5 62.5t60.5 25.5q37 0 63 -25.5t26 -62.5q0 -35 -26 -60.5t-63 -25.5q-35 0 -60.5 25.5t-25.5 60.5z" />
<glyph unicode="/" horiz-adv-x="800" d="M27 -303l596 1892h102l-596 -1892h-102z" />
<glyph unicode="0" horiz-adv-x="1349" d="M117 670v123q0 321 148 504.5t409 183.5q260 0 410.5 -184t150.5 -498v-125q0 -322 -146 -506t-409 -184q-261 0 -412 183.5t-151 502.5zM233 670q0 -288 117.5 -439t329.5 -151q216 0 327 151.5t111 444.5v123q0 271 -117.5 429t-326.5 158q-210 0 -325.5 -154.5 t-115.5 -436.5v-125z" />
<glyph unicode="1" horiz-adv-x="753" d="M55 1112v107l353 245h96v-1464h-113v1346z" />
<glyph unicode="2" horiz-adv-x="1099" d="M41 0v27l588 608q119 122 174 228t55 222q0 144 -84 222.5t-227 78.5q-146 0 -237.5 -86.5t-112.5 -261.5h-107q17 206 140.5 324.5t316.5 118.5q192 0 309 -106.5t117 -293.5q0 -130 -70 -256t-209 -262l-473 -469h772v-94h-952z" />
<glyph unicode="3" horiz-adv-x="1161" d="M76 414h104q15 -148 112 -242t275 -94q176 0 271.5 86t95.5 242q0 146 -84 229.5t-250 83.5h-106v96h98q150 0 223.5 77.5t73.5 201.5q0 129 -79 209.5t-222 80.5q-149 0 -243.5 -85t-108.5 -220h-103q11 171 138 286.5t317 115.5q189 0 300 -111t111 -274 q0 -118 -65 -203t-174 -119q134 -30 212.5 -125t78.5 -243q0 -197 -133.5 -309.5t-352.5 -112.5q-218 0 -349.5 124t-139.5 306z" />
<glyph unicode="4" horiz-adv-x="1218" d="M68 330v35l708 1099h160v-1040h203v-94h-203v-330h-113v330h-755zM219 424h604v956z" />
<glyph unicode="5" horiz-adv-x="1148" d="M78 377h110q10 -64 34 -116t66 -94.5t108.5 -65.5t152.5 -23q174 0 273.5 106t99.5 291q0 171 -99.5 277t-253.5 106q-230 0 -362 -160h-43v766h799v-98h-703v-537q52 52 137 87.5t191 35.5q195 0 322.5 -130.5t127.5 -346.5q0 -225 -136.5 -358t-352.5 -133 q-108 0 -195.5 31t-144.5 85t-90 124.5t-41 152.5z" />
<glyph unicode="6" horiz-adv-x="1228" d="M123 600v107q0 197 40.5 347t114.5 242.5t173.5 138.5t222.5 46q167 0 276 -84.5t135 -249.5h-108q-23 120 -99.5 178.5t-209.5 58.5q-199 0 -314 -157t-118 -486v-59q49 118 162 184t247 66q223 0 351 -132.5t128 -336.5q0 -215 -134 -347t-357 -132q-135 0 -235.5 47 t-159.5 132t-87 194t-28 243zM248 477q0 -114 42.5 -203t131 -143.5t211.5 -54.5q169 0 272 106t103 277q0 174 -98.5 277.5t-278.5 103.5q-162 0 -272.5 -99.5t-110.5 -263.5z" />
<glyph unicode="7" horiz-adv-x="1032" d="M57 1370v94h936v-18l-571 -1446h-117l545 1370h-793z" />
<glyph unicode="8" horiz-adv-x="1193" d="M106 408q0 148 89.5 248t232.5 137q-118 34 -189 116.5t-71 202.5q0 109 62 195t159 130t209 44q173 0 300.5 -103t127.5 -262q0 -123 -69 -204.5t-187 -118.5q146 -38 231.5 -135.5t85.5 -245.5q0 -83 -26 -153t-71.5 -120t-107 -85.5t-133.5 -52.5t-151 -17 q-95 0 -182.5 27.5t-157 78.5t-111 133.5t-41.5 184.5zM223 412q0 -159 106.5 -245.5t268.5 -86.5q168 0 270.5 87t102.5 249q0 153 -105 239t-264 86q-160 0 -269.5 -88t-109.5 -241zM283 1112q0 -87 47 -152t119 -95.5t155 -30.5q135 0 221 74t86 208q0 119 -88.5 196 t-224.5 77q-137 0 -226 -76t-89 -201z" />
<glyph unicode="9" horiz-adv-x="1226" d="M102 1004q0 214 135 345.5t359 131.5q252 0 381 -162.5t129 -441.5v-168q0 -191 -36 -330.5t-105.5 -225t-166 -126.5t-223.5 -41q-182 0 -300 90.5t-148 259.5h111q28 -125 113.5 -190.5t226.5 -65.5q100 0 174.5 32t129.5 103t83.5 191t29.5 288v78 q-49 -113 -164 -176.5t-251 -63.5q-219 0 -348.5 132t-129.5 340zM219 1008q0 -174 98.5 -278.5t276.5 -104.5q163 0 275 97t112 255q0 179 -101 296.5t-284 117.5q-171 0 -274 -106t-103 -277z" />
<glyph unicode=":" horiz-adv-x="485" d="M156 76q0 37 25.5 62.5t60.5 25.5q37 0 62.5 -25.5t25.5 -62.5q0 -35 -25.5 -60.5t-62.5 -25.5q-35 0 -60.5 25.5t-25.5 60.5zM156 741q0 36 25 61t61 25q37 0 62.5 -24.5t25.5 -61.5t-25.5 -61.5t-62.5 -24.5q-36 0 -61 25t-25 61z" />
<glyph unicode=";" horiz-adv-x="485" d="M47 -203l158 375l108 -49l-192 -363zM166 741q0 36 25 61t61 25q37 0 62.5 -24.5t25.5 -61.5t-25.5 -61.5t-62.5 -24.5q-36 0 -61 25t-25 61z" />
<glyph unicode="&#x3c;" horiz-adv-x="1015" d="M104 645v29l787 432v-107l-627 -340l627 -340v-106z" />
<glyph unicode="=" horiz-adv-x="991" d="M82 436v94h827v-94h-827zM82 778v94h827v-94h-827z" />
<glyph unicode="&#x3e;" horiz-adv-x="1015" d="M125 213v106l627 340l-627 340v107l786 -432v-29z" />
<glyph unicode="?" horiz-adv-x="976" d="M76 1081q10 180 127 290t297 110q183 0 280 -93.5t97 -234.5q0 -27 -3 -51.5t-11.5 -48.5t-14.5 -41.5t-23 -41t-24.5 -35.5t-31 -37t-31.5 -33.5t-36.5 -36.5t-35.5 -35q-40 -39 -60 -60t-48 -55.5t-41.5 -61.5t-23.5 -64t-10 -77v-108h-98v116q0 48 12 92t26.5 74.5 t47 71t53 62t66.5 67.5q41 41 56 56.5t44.5 51t41 59t22 59.5t10.5 73q0 109 -67 174.5t-199 65.5q-134 0 -220 -83t-98 -225h-104zM344 76q0 37 25.5 62.5t62.5 25.5q35 0 60.5 -25.5t25.5 -62.5q0 -35 -25.5 -60.5t-60.5 -25.5q-37 0 -62.5 25.5t-25.5 60.5z" />
<glyph unicode="@" horiz-adv-x="1861" d="M94 537q0 183 71.5 346.5t190.5 278t279 181t332 66.5q180 0 331.5 -58t255 -158.5t161 -238.5t57.5 -295q0 -108 -22 -197t-58 -147t-83.5 -98t-97 -57t-100.5 -17q-214 0 -233 207q-41 -89 -126 -155t-190 -66q-146 0 -235.5 96t-89.5 260q0 202 117.5 339t279.5 137 q107 0 176.5 -54.5t91.5 -136.5l19 172h108l-57 -491q-14 -106 20.5 -166t118.5 -60q113 0 188.5 109t75.5 321q0 145 -48.5 267.5t-138 211t-223.5 138t-298 49.5q-159 0 -300.5 -59t-245 -161t-164 -248.5t-60.5 -313.5q0 -120 30 -230t91.5 -205.5t148.5 -165.5 t209 -110.5t266 -40.5q354 0 557 213h103q-79 -131 -255 -216t-405 -85q-160 0 -298 45t-238 124t-171 185t-106 229t-35 255zM647 485q0 -125 64.5 -197.5t169.5 -72.5q122 0 211.5 109.5t89.5 269.5q0 132 -65 205t-175 73q-120 0 -207.5 -108t-87.5 -279z" />
<glyph unicode="A" horiz-adv-x="1339" d="M68 0l526 1464h151l527 -1464h-115l-162 449h-659l-160 -449h-108zM369 541h594l-297 829z" />
<glyph unicode="B" horiz-adv-x="1236" d="M188 0v1464h416q206 0 325.5 -90t119.5 -280v-9q0 -122 -63.5 -202.5t-186.5 -114.5q164 -31 242.5 -118.5t78.5 -237.5v-9q0 -197 -120 -300t-334 -103h-478zM301 92h363q171 0 258.5 79t87.5 232v9q0 303 -385 303h-324v-623zM301 805h305q330 0 330 282v9 q0 276 -334 276h-301v-567z" />
<glyph unicode="C" horiz-adv-x="1484" d="M109 723v16q0 159 52.5 298t143 236.5t216 153.5t267.5 56q153 0 277.5 -51t208.5 -156t106 -252h-114q-34 179 -154 273t-321 94q-248 0 -407 -181t-159 -469v-16q0 -297 152.5 -471t413.5 -174q200 0 332 102t167 289h107q-39 -232 -203.5 -359.5t-405.5 -127.5 q-311 0 -495 202.5t-184 536.5z" />
<glyph unicode="D" horiz-adv-x="1404" d="M188 0v1464h381q177 0 317 -54.5t229.5 -152t136 -228t46.5 -284.5v-18q0 -123 -28 -231.5t-86.5 -200t-144 -157t-206.5 -102t-268 -36.5h-377zM303 94h258q153 0 271.5 46.5t194.5 131.5t114.5 200.5t38.5 256.5v16q0 137 -37 249.5t-111.5 197.5t-195 131.5 t-277.5 46.5h-256v-1276z" />
<glyph unicode="E" horiz-adv-x="1159" d="M188 0v1464h842v-94h-727v-571h590v-94h-590v-611h764v-94h-879z" />
<glyph unicode="F" horiz-adv-x="1105" d="M188 0v1464h834v-94h-719v-582h565v-94h-565v-694h-115z" />
<glyph unicode="G" horiz-adv-x="1548" d="M109 723v16q0 211 90.5 381.5t250 266.5t357.5 96q108 0 203 -26t175 -77.5t135 -136.5t75 -196h-115q-38 175 -163 259.5t-308 84.5q-262 0 -423 -181t-161 -469v-16q0 -297 154 -472t432 -175q251 0 383 142t135 390v8h-450v97h561v-84q0 -310 -170 -478.5t-459 -168.5 q-216 0 -376 95.5t-243 262t-83 381.5z" />
<glyph unicode="H" horiz-adv-x="1468" d="M188 0v1464h115v-682h862v682h115v-1464h-115v686h-862v-686h-115z" />
<glyph unicode="I" horiz-adv-x="512" d="M199 0v1464h114v-1464h-114z" />
<glyph unicode="J" horiz-adv-x="821" d="M76 27v96q95 -43 198 -43q265 0 265 295v1089h114v-1093q0 -194 -101.5 -289.5t-270.5 -95.5q-116 0 -205 41z" />
<glyph unicode="K" horiz-adv-x="1226" d="M188 0v1464h115v-721l711 723h131l-709 -714l744 -752h-140l-737 739v-739h-115z" />
<glyph unicode="L" horiz-adv-x="1085" d="M188 0v1464h115v-1370h711v-94h-826z" />
<glyph unicode="M" horiz-adv-x="1742" d="M188 0v1464h164l516 -1257l518 1257h160v-1464h-112v1321l-551 -1321h-37l-551 1321v-1321h-107z" />
<glyph unicode="N" horiz-adv-x="1460" d="M188 0v1464h156l819 -1306v1306h109v-1464h-135l-838 1337v-1337h-111z" />
<glyph unicode="O" d="M109 723v16q0 154 54 291t147 236t226 157t285 58t285.5 -57.5t227 -156.5t147 -235t53.5 -289v-16q0 -205 -91 -375t-254 -269t-364 -99q-205 0 -369.5 99t-255.5 267.5t-91 372.5zM225 725q0 -183 78.5 -331t216 -231t305.5 -83q172 0 307 83.5t209 231.5t74 334v16 q0 178 -73 323.5t-209.5 231.5t-311.5 86q-176 0 -312.5 -84t-210 -230.5t-73.5 -330.5v-16z" />
<glyph unicode="P" horiz-adv-x="1163" d="M188 0v1464h387q110 0 199 -23t157.5 -70.5t106 -128.5t37.5 -189v-9q0 -110 -37 -191.5t-105 -130t-156.5 -72t-198.5 -23.5h-275v-627h-115zM303 719h283q182 0 278.5 80t96.5 245v9q0 170 -98 243.5t-281 73.5h-279v-651z" />
<glyph unicode="Q" d="M109 723v16q0 154 54 291t147 236t226 157t285 58t285.5 -57.5t227 -156.5t147 -235t53.5 -289v-16q0 -179 -71 -333t-197 -257l180 -192l-70 -68l-190 205q-162 -98 -361 -98q-205 0 -369.5 99t-255.5 267.5t-91 372.5zM225 725q0 -183 78.5 -331t216 -231t305.5 -83 q163 0 293 76l-207 225l70 68l217 -238q104 88 160.5 222.5t56.5 295.5v16q0 178 -73 323.5t-209.5 231.5t-311.5 86q-176 0 -312.5 -84t-210 -230.5t-73.5 -330.5v-16z" />
<glyph unicode="R" horiz-adv-x="1241" d="M188 0v1464h402q110 0 198.5 -22t156.5 -68t105 -123t37 -180v-8q0 -174 -101 -268t-277 -119l465 -676h-127l-459 668h-285v-668h-115zM303 760h293q377 0 377 303v8q0 83 -26.5 141.5t-77.5 92.5t-118 49.5t-155 15.5h-293v-610z" />
<glyph unicode="S" horiz-adv-x="1232" d="M86 420h113q46 -342 432 -342q170 0 274.5 88t104.5 225q0 152 -85 220t-309 102q-245 36 -359 125.5t-114 259.5t128 276.5t333 106.5q203 0 324.5 -96.5t146.5 -272.5h-104q-27 138 -116.5 206t-250.5 68q-168 0 -261 -74t-93 -206q0 -84 32 -137.5t117 -92.5t236 -61 q129 -19 215 -47.5t149.5 -76t92 -119t28.5 -173.5q0 -177 -136 -296t-353 -119q-132 0 -233 34t-164.5 95t-99.5 137t-48 170z" />
<glyph unicode="T" horiz-adv-x="1144" d="M61 1370v94h1022v-94h-454v-1370h-113v1370h-455z" />
<glyph unicode="U" horiz-adv-x="1396" d="M168 524v940h113v-927q0 -232 103.5 -343.5t309.5 -111.5q215 0 318.5 113t103.5 368v901h115v-917q0 -268 -135 -414.5t-404 -146.5q-250 0 -387 139t-137 399z" />
<glyph unicode="V" horiz-adv-x="1304" d="M59 1464h113l490 -1351l475 1351h106l-518 -1464h-135z" />
<glyph unicode="W" horiz-adv-x="1884" d="M68 1464h114l336 -1290l387 1290h80l373 -1294l354 1294h105l-402 -1464h-110l-361 1262l-381 -1262h-108z" />
<glyph unicode="X" horiz-adv-x="1323" d="M94 0l506 758l-463 706h125l410 -620l405 620h119l-467 -708l500 -756h-129l-445 672l-444 -672h-117z" />
<glyph unicode="Y" horiz-adv-x="1183" d="M47 1464h127l434 -716l414 716h115l-473 -815v-649h-115v651z" />
<glyph unicode="Z" horiz-adv-x="1202" d="M55 0v23l908 1347h-834v94h993v-20l-895 -1346h883v-98h-1055z" />
<glyph unicode="[" horiz-adv-x="696" d="M190 -303v1892h422v-88h-313v-1716h313v-88h-422z" />
<glyph unicode="\" horiz-adv-x="800" d="M76 1589h102l596 -1892h-102z" />
<glyph unicode="]" horiz-adv-x="696" d="M86 -215h311v1716h-311v88h420v-1892h-420v88z" />
<glyph unicode="^" horiz-adv-x="978" d="M94 864l342 600h109l342 -600h-113l-285 502l-286 -502h-109z" />
<glyph unicode="_" horiz-adv-x="796" d="M-2 -219h801v-90h-801v90z" />
<glyph unicode="`" horiz-adv-x="819" d="M188 1540h134l139 -301h-84z" />
<glyph unicode="a" horiz-adv-x="1083" d="M90 289q0 90 40.5 154.5t112.5 100.5t158 52t191 16h223v97q0 150 -64.5 218t-205.5 68q-126 0 -204.5 -56t-96.5 -171h-107q9 82 46 144.5t93.5 100t125.5 56t147 18.5q176 0 275.5 -91t99.5 -287v-709h-109v164q-118 -180 -362 -180q-164 0 -263.5 78.5t-99.5 226.5z M199 289q0 -104 66 -160.5t196 -56.5q149 0 251.5 77.5t102.5 196.5v182h-219q-71 0 -127.5 -6t-108.5 -22.5t-86 -43t-54.5 -69t-20.5 -98.5z" />
<glyph unicode="b" horiz-adv-x="1253" d="M168 0v1583h108v-762q48 110 160.5 188t247.5 78q207 0 344 -147.5t137 -392.5v-17q0 -248 -135 -397t-346 -149q-148 0 -254.5 75.5t-153.5 184.5v-244h-108zM274 526q0 -212 114 -331t288 -119q172 0 274.5 119t102.5 331v17q0 108 -30.5 195t-82.5 142.5t-120 85 t-146 29.5q-79 0 -150.5 -29.5t-127.5 -85t-89 -143t-33 -194.5v-17z" />
<glyph unicode="c" horiz-adv-x="1138" d="M88 524v17q0 120 40.5 223t109.5 173.5t163 110t199 39.5q112 0 206 -37.5t160.5 -120t80.5 -198.5h-107q-19 129 -113 196.5t-227 67.5q-172 0 -285.5 -123.5t-113.5 -330.5v-17q0 -207 112.5 -327.5t286.5 -120.5q139 0 237.5 77.5t118.5 217.5h101 q-22 -172 -148 -279.5t-309 -107.5q-220 0 -366 149.5t-146 390.5z" />
<glyph unicode="d" horiz-adv-x="1253" d="M88 520v17q0 244 141.5 397t356.5 153q147 0 243.5 -70.5t147.5 -182.5v749h108v-1583h-108v248q-47 -107 -157 -185.5t-251 -78.5q-102 0 -190 36.5t-152.5 103.5t-101.5 169t-37 227zM201 524q0 -213 106.5 -330.5t272.5 -117.5q82 0 154 29.5t127 85t86.5 142.5 t31.5 195v17q0 215 -105.5 332.5t-277.5 117.5q-176 0 -285.5 -121t-109.5 -333v-17z" />
<glyph unicode="e" horiz-adv-x="1134" d="M88 524v17q0 242 138 394t354 152q98 0 182 -32.5t149 -95t101.5 -164t36.5 -230.5v-39h-848q3 -217 104.5 -333.5t290.5 -116.5q136 0 222.5 56t113.5 167h108q-33 -151 -151 -233t-293 -82q-231 0 -369.5 148.5t-138.5 391.5zM205 614h731q-7 190 -101 285.5t-255 95.5 q-156 0 -258 -103.5t-117 -277.5z" />
<glyph unicode="f" horiz-adv-x="681" d="M53 979v92h162v193q0 162 82 243.5t221 81.5q60 0 119 -18v-92q-56 18 -115 18q-93 0 -145.5 -55t-52.5 -168v-203h299v-92h-299v-979h-109v979h-162z" />
<glyph unicode="g" horiz-adv-x="1253" d="M88 547v14q0 228 142.5 377t355.5 149q147 0 243.5 -68.5t147.5 -178.5v231h108v-999q-1 -116 -37.5 -204t-103.5 -143t-156 -82.5t-198 -27.5q-112 0 -200.5 26t-145.5 72t-90 102.5t-43 123.5h110q23 -108 114.5 -170t252.5 -62q181 0 285 89.5t104 279.5v219 q-47 -106 -156.5 -183t-249.5 -77q-208 0 -345.5 141.5t-137.5 370.5zM201 549q0 -194 108 -308t273 -114q169 0 283 115.5t114 310.5v16q0 199 -106 312.5t-277 113.5q-175 0 -285 -116.5t-110 -313.5v-16z" />
<glyph unicode="h" horiz-adv-x="1193" d="M168 0v1583h108v-721q39 94 141.5 159.5t237.5 65.5q179 0 280 -104t101 -324v-659h-108v666q0 327 -297 327q-92 0 -171 -38t-131.5 -118t-52.5 -188v-649h-108z" />
<glyph unicode="i" horiz-adv-x="452" d="M147 1378q0 31 23 53.5t55 22.5t54 -22.5t22 -53.5q0 -32 -22 -55t-54 -23t-55 23t-23 55zM172 0v1071h109v-1071h-109z" />
<glyph unicode="j" horiz-adv-x="452" d="M14 -293q88 7 123 52t35 135v1177h109v-1169q0 -143 -62 -212t-205 -75v92zM147 1378q0 31 23 53.5t55 22.5t54 -22.5t22 -53.5q0 -32 -22 -55t-54 -23t-55 23t-23 55z" />
<glyph unicode="k" horiz-adv-x="997" d="M168 0v1583h108v-1016l523 504h129l-522 -500l557 -571h-136l-551 567v-567h-108z" />
<glyph unicode="l" horiz-adv-x="454" d="M172 0v1583h111v-1583h-111z" />
<glyph unicode="m" horiz-adv-x="1851" d="M168 0v1071h108v-203q39 93 133 156t218 63q264 0 327 -239q50 112 153.5 175.5t227.5 63.5q166 0 262.5 -100t96.5 -317v-670h-109v676q0 166 -67.5 241.5t-200.5 75.5q-85 0 -159 -37.5t-123.5 -116.5t-49.5 -186v-653h-108v676q0 166 -68 241.5t-201 75.5 q-85 0 -159 -37.5t-123.5 -116.5t-49.5 -186v-653h-108z" />
<glyph unicode="n" horiz-adv-x="1193" d="M168 0v1071h108v-209q39 94 141.5 159.5t237.5 65.5q179 0 280 -104t101 -324v-659h-108v666q0 327 -297 327q-92 0 -171 -38t-131.5 -118t-52.5 -188v-649h-108z" />
<glyph unicode="o" horiz-adv-x="1210" d="M88 526v17q0 118 40.5 220.5t110.5 173t165 110.5t202 40q108 0 202.5 -39.5t164 -109t109.5 -171.5t40 -222v-17q0 -239 -149 -391.5t-369 -152.5q-108 0 -203.5 40.5t-164 112t-108.5 172.5t-40 217zM201 526q0 -203 114 -326.5t291 -123.5q175 0 289.5 123.5 t114.5 326.5v17q0 207 -114.5 329.5t-289.5 122.5q-176 0 -290.5 -123.5t-114.5 -328.5v-17z" />
<glyph unicode="p" horiz-adv-x="1253" d="M168 -373v1444h108v-250q48 110 160.5 188t247.5 78q207 0 344 -147.5t137 -392.5v-17q0 -248 -135 -397t-346 -149q-149 0 -254.5 75.5t-153.5 184.5v-617h-108zM274 526q0 -212 114 -331t288 -119q172 0 274.5 119t102.5 331v17q0 108 -30.5 195t-82.5 142.5t-120 85 t-146 29.5q-79 0 -150.5 -29.5t-127.5 -85t-89 -143t-33 -194.5v-17z" />
<glyph unicode="q" horiz-adv-x="1253" d="M88 520v17q0 244 141.5 397t356.5 153q147 0 243.5 -70.5t147.5 -182.5v237h108v-1444h-108v621q-47 -107 -157 -185.5t-251 -78.5q-102 0 -190 36.5t-152.5 103.5t-101.5 169t-37 227zM201 524q0 -213 106.5 -330.5t272.5 -117.5q82 0 154 29.5t127 85t86.5 142.5 t31.5 195v17q0 215 -105.5 332.5t-277.5 117.5q-176 0 -285.5 -121t-109.5 -333v-17z" />
<glyph unicode="r" horiz-adv-x="712" d="M168 0v1071h108v-225q104 231 363 239v-102q-363 -14 -363 -389v-594h-108z" />
<glyph unicode="s" horiz-adv-x="952" d="M78 319h104q14 -115 89 -180t218 -65q133 0 203 56t70 155t-61.5 143.5t-219.5 73.5q-202 36 -285 100.5t-83 198.5q0 130 104.5 208t247.5 78q154 0 253 -69.5t120 -220.5h-105q-20 102 -86 150t-184 48q-113 0 -181.5 -52t-68.5 -138q0 -91 63 -134t230 -73 q75 -13 126 -27.5t98.5 -37.5t75.5 -54t44 -77.5t16 -108.5q0 -139 -99.5 -225t-277.5 -86q-186 0 -293 90.5t-118 246.5z" />
<glyph unicode="t" horiz-adv-x="692" d="M51 979v92h158v244h108v-244h281v-92h-281v-713q0 -94 42 -141t118 -47q67 0 135 22v-92q-64 -22 -141 -22q-127 0 -194.5 71t-67.5 201v721h-158z" />
<glyph unicode="u" horiz-adv-x="1185" d="M158 393v678h108v-672q0 -321 293 -321q90 0 168 37.5t130 117t52 187.5v651h109v-1071h-109v205q-39 -93 -139.5 -157t-234.5 -64q-176 0 -276.5 99t-100.5 310z" />
<glyph unicode="v" horiz-adv-x="1060" d="M51 1071h119l365 -962l362 962h111l-404 -1071h-141z" />
<glyph unicode="w" horiz-adv-x="1589" d="M59 1071h117l287 -938l293 938h92l282 -938l289 938h111l-338 -1071h-125l-266 897l-285 -897h-123z" />
<glyph unicode="x" horiz-adv-x="1046" d="M59 0l398 553l-373 518h129l309 -436l305 436h121l-366 -510l405 -561h-129l-340 479l-340 -479h-119z" />
<glyph unicode="y" horiz-adv-x="1040" d="M51 1071h117l367 -854l342 854h110l-594 -1444h-112l194 465z" />
<glyph unicode="z" horiz-adv-x="970" d="M49 0v18l696 961h-634v92h804v-20l-690 -955h676v-96h-852z" />
<glyph unicode="{" horiz-adv-x="743" d="M86 606v82q151 1 210 74.5t36 189.5l-45 234q-41 218 54 312.5t316 94.5v-86q-67 -1 -114 -10t-85 -30.5t-55.5 -58t-23.5 -91t10 -129.5l47 -246q22 -123 -30.5 -196t-161.5 -99q109 -26 161.5 -99t30.5 -196l-47 -246q-16 -75 -10 -129.5t23.5 -91t55.5 -58t85 -30.5 t114 -10v-86q-220 0 -315.5 95t-54.5 313l45 233q23 116 -36 189.5t-210 74.5z" />
<glyph unicode="|" horiz-adv-x="493" d="M201 -303v1892h92v-1892h-92z" />
<glyph unicode="}" horiz-adv-x="743" d="M86 -213q55 1 96.5 7t77 20.5t56.5 38t35 59t12.5 83.5t-11.5 111l-45 246q-22 123 31 196t162 99q-109 26 -162 99t-31 196l45 246q10 63 11.5 111t-12.5 83.5t-35 59t-56.5 38t-77 20.5t-96.5 7v86q221 0 316.5 -95t54.5 -312l-47 -234q-22 -116 36.5 -189.5 t210.5 -74.5v-82q-152 -1 -210.5 -74.5t-36.5 -189.5l47 -233q41 -218 -54.5 -313t-316.5 -95v86z" />
<glyph unicode="~" horiz-adv-x="897" d="M94 475q10 104 65.5 164.5t133.5 60.5q44 0 90.5 -19t79 -42t70.5 -42t67 -19q45 0 76 35t35 92h90q-9 -106 -63 -166t-130 -60q-46 0 -94 19t-80.5 42.5t-70 42.5t-66.5 19q-44 0 -74.5 -35.5t-38.5 -91.5h-90z" />
<glyph unicode="&#xa1;" horiz-adv-x="557" d="M193 1149q0 35 25.5 60.5t60.5 25.5q37 0 62.5 -25.5t25.5 -60.5q0 -37 -25.5 -62.5t-62.5 -25.5q-35 0 -60.5 25.5t-25.5 62.5zM217 -240l16 1098h86l19 -1098h-121z" />
<glyph unicode="&#xa2;" horiz-adv-x="1132" d="M88 524v17q0 232 132.5 380.5t332.5 163.5v203h82v-203q162 -10 277.5 -101t134.5 -253h-107q-18 120 -101 186.5t-204 75.5v-915q126 9 214.5 85.5t106.5 207.5h101q-22 -163 -137.5 -269t-284.5 -116v-262h-82v262q-204 15 -334.5 160t-130.5 378zM201 524 q0 -198 97.5 -315t254.5 -131v915q-156 -15 -254 -135t-98 -317v-17z" />
<glyph unicode="&#xa3;" horiz-adv-x="1206" d="M86 0q5 48 26.5 92t65 80.5t101.5 48.5q40 75 40 170q0 116 -49 279h-170v84h146q-49 167 -49 309q0 186 125 302t317 116q193 0 305 -101.5t127 -273.5h-110q-23 139 -98.5 208.5t-223.5 69.5q-145 0 -235.5 -89t-90.5 -232q0 -132 47 -309h469v-84h-446 q39 -164 39 -281q0 -87 -37 -166q62 -10 146 -46t159 -65.5t131 -29.5q96 0 150.5 53t60.5 160h98q-9 -141 -89 -226t-210 -85q-63 0 -135.5 23.5t-126.5 51t-116.5 51t-108.5 23.5q-69 0 -110.5 -38t-49.5 -95h-98z" />
<glyph unicode="&#xa5;" horiz-adv-x="1122" d="M57 1464h123l400 -696l374 696h111l-416 -759h350v-80h-368v-199h368v-80h-368v-346h-111v346h-370v80h370v199h-370v80h350z" />
<glyph unicode="&#xa6;" horiz-adv-x="499" d="M201 -303v911h92v-911h-92zM201 752v837h92v-837h-92z" />
<glyph unicode="&#xa7;" horiz-adv-x="1095" d="M94 629q0 104 72.5 177.5t189.5 102.5q-73 45 -108 105t-35 157q0 135 102 223.5t244 88.5q157 0 248 -78.5t100 -220.5h-110q-9 101 -64.5 153t-171.5 52q-109 0 -175.5 -58.5t-66.5 -156.5q0 -101 62.5 -153.5t236.5 -102.5q95 -26 157.5 -51.5t117.5 -64.5t81.5 -94 t26.5 -130q0 -103 -66.5 -175.5t-182.5 -103.5q143 -82 143 -264q0 -137 -98 -226.5t-252 -89.5q-164 0 -268 83t-111 231h113q9 -104 76.5 -161.5t187.5 -57.5t182.5 60t62.5 159q0 106 -66 160t-249 100q-92 24 -155.5 50t-117 65t-80 93.5t-26.5 127.5zM203 637 q0 -98 71.5 -149t231.5 -95l160 -47q227 51 227 225q0 50 -18.5 87.5t-60 65.5t-91 48t-127.5 43l-158 47q-106 -20 -170.5 -78t-64.5 -147z" />
<glyph unicode="&#xa8;" horiz-adv-x="819" d="M164 1378q0 31 22 52.5t54 21.5q31 0 52 -21.5t21 -52.5t-21 -53t-52 -22q-32 0 -54 22t-22 53zM506 1378q0 31 21.5 52.5t52.5 21.5q32 0 53.5 -21.5t21.5 -52.5t-21.5 -53t-53.5 -22q-31 0 -52.5 22t-21.5 53z" />
<glyph unicode="&#xa9;" horiz-adv-x="1728" d="M113 731q0 154 59 293.5t159 240t240 159.5t295 59q157 0 296.5 -59t238.5 -159t157 -238t58 -292q0 -157 -59 -297t-159.5 -240t-240 -158t-295.5 -58q-205 0 -377 98t-272 270.5t-100 380.5zM188 731q0 -146 54.5 -274.5t146.5 -217.5t215 -140.5t258 -51.5 q137 0 261.5 52t216 142t146 219t54.5 275q0 145 -53 272t-143 216.5t-214.5 141.5t-263.5 52t-264 -52t-216 -142.5t-144.5 -218.5t-53.5 -273zM469 729v14q0 185 113.5 302.5t283.5 117.5q141 0 237 -70.5t114 -201.5h-107q-17 91 -79 138.5t-165 47.5q-127 0 -206.5 -91 t-79.5 -243v-12q0 -155 77 -244.5t211 -89.5q103 0 171 53t85 150h101q-18 -138 -115.5 -214.5t-241.5 -76.5q-184 0 -291.5 114.5t-107.5 305.5z" />
<glyph unicode="&#xaa;" horiz-adv-x="856" d="M76 858q0 71 31.5 122t88 79.5t125 41.5t152.5 13h166v68q0 110 -48.5 161.5t-154.5 51.5q-191 0 -221 -164h-102q13 123 104.5 186.5t224.5 63.5q141 0 220 -72.5t79 -226.5v-549h-102v123q-90 -138 -279 -138q-128 0 -206 62t-78 178zM180 860q0 -160 197 -160 q110 0 186 58t76 147v133h-162q-68 0 -119 -8t-92.5 -27.5t-63.5 -55.5t-22 -87z" />
<glyph unicode="&#xab;" horiz-adv-x="917" d="M111 535l276 364h111l-271 -364l271 -365h-111zM434 535l277 364h110l-270 -364l270 -365h-110z" />
<glyph unicode="&#xad;" horiz-adv-x="681" d="M127 516v102h428v-102h-428z" />
<glyph unicode="&#xae;" horiz-adv-x="1052" d="M72 1028q0 189 132 322t322 133q193 0 324 -131.5t131 -321.5q0 -191 -132 -321.5t-323 -130.5q-190 0 -322 129.5t-132 320.5zM135 1028q0 -171 112.5 -282t278.5 -111q167 0 279.5 112t112.5 283q0 172 -111.5 284.5t-280.5 112.5q-167 0 -279 -114t-112 -285zM375 805 v467h153q79 0 124.5 -35t45.5 -102v-2q0 -102 -104 -125l133 -203h-84l-125 190h-67v-190h-76zM451 1053h75q99 0 99 77v3q0 79 -99 79h-75v-159z" />
<glyph unicode="&#xaf;" horiz-adv-x="819" d="M162 1325v86h495v-86h-495z" />
<glyph unicode="&#xb0;" horiz-adv-x="833" d="M104 1178q0 126 92 215.5t222 89.5q129 0 220 -89.5t91 -215.5q0 -125 -91 -214.5t-220 -89.5q-130 0 -222 89.5t-92 214.5zM201 1178q0 -94 62 -159t155 -65q92 0 152.5 64.5t60.5 159.5t-61 160t-152 65q-93 0 -155 -65t-62 -160z" />
<glyph unicode="&#xb1;" horiz-adv-x="1044" d="M74 0v92h897v-92h-897zM74 676v92h399v408h98v-408h400v-92h-400v-408h-98v408h-399z" />
<glyph unicode="&#xb2;" horiz-adv-x="587" d="M31 762v18l266 269q67 69 97 118.5t30 102.5q0 61 -36.5 96t-98.5 35q-67 0 -106 -41.5t-48 -118.5h-84q6 108 70.5 170t169.5 62q103 0 163 -55.5t60 -145.5q0 -69 -34.5 -127t-112.5 -133l-185 -178h340v-72h-491z" />
<glyph unicode="&#xb3;" horiz-adv-x="630" d="M49 969h84q8 -65 53 -105.5t125 -40.5q76 0 118 36.5t42 101.5q0 61 -39 97t-110 36h-56v67h51q67 0 101.5 32.5t34.5 88.5q0 55 -37 88t-101 33q-68 0 -108.5 -37t-48.5 -98h-82q6 90 70 147.5t171 57.5q101 0 162.5 -53t61.5 -134q0 -58 -32.5 -98t-88.5 -55 q64 -14 103.5 -59.5t39.5 -115.5q0 -96 -67.5 -150t-182.5 -54q-119 0 -189 59.5t-75 155.5z" />
<glyph unicode="&#xb4;" horiz-adv-x="819" d="M358 1239l140 301h133l-189 -301h-84z" />
<glyph unicode="&#xb6;" horiz-adv-x="1144" d="M92 1085q0 185 120.5 282t313.5 97h426v-1669h-94v1591h-211v-1591h-92v928h-29q-197 0 -315.5 93t-118.5 269z" />
<glyph unicode="&#xb7;" horiz-adv-x="468" d="M147 664q0 35 25.5 60.5t60.5 25.5q37 0 63 -25.5t26 -60.5q0 -37 -26 -63t-63 -26q-35 0 -60.5 26t-25.5 63z" />
<glyph unicode="&#xb8;" horiz-adv-x="819" d="M233 -274h91q6 -37 33 -61.5t69 -24.5q46 0 74 24.5t28 65.5t-27 60.5t-65 19.5q-40 0 -74 -17l-53 43l92 164h88l-71 -125q81 19 144 -20.5t63 -128.5q0 -75 -56 -117.5t-139 -42.5t-136 44t-61 116z" />
<glyph unicode="&#xb9;" horiz-adv-x="444" d="M43 1243v84l197 137h75v-702h-92v606z" />
<glyph unicode="&#xba;" horiz-adv-x="972" d="M80 1042v13q0 189 116.5 306.5t290.5 117.5q175 0 290.5 -116t115.5 -306v-13q0 -191 -116.5 -308.5t-291.5 -117.5q-173 0 -289 119t-116 305zM186 1042q0 -152 84.5 -244.5t216.5 -92.5q131 0 215 92.5t84 246.5v13q0 154 -83.5 245t-215.5 91q-130 0 -215.5 -93 t-85.5 -245v-13z" />
<glyph unicode="&#xbb;" horiz-adv-x="917" d="M96 170l271 365l-271 364h111l276 -364l-276 -365h-111zM420 170l270 365l-270 364h110l277 -364l-277 -365h-110z" />
<glyph unicode="&#xbc;" horiz-adv-x="1353" d="M49 1243v84l197 137h76v-702h-93v606zM92 0l1057 1464h92l-1057 -1464h-92zM748 152v32l335 518h117v-481h96v-69h-96v-152h-88v152h-364zM852 221h262v414z" />
<glyph unicode="&#xbd;" horiz-adv-x="1361" d="M51 1243v84l197 137h76v-702h-93v606zM59 0l1057 1464h92l-1056 -1464h-93zM797 0v18l266 271q67 67 97 117t30 104q0 60 -36.5 94.5t-98.5 34.5q-136 0 -154 -160h-84q6 108 70.5 170t169.5 62q103 0 163 -54.5t60 -146.5q0 -68 -35 -127t-112 -131l-185 -180h340v-72 h-491z" />
<glyph unicode="&#xbe;" horiz-adv-x="1382" d="M55 969h84q8 -65 53 -105.5t125 -40.5q76 0 118 36.5t42 101.5q0 61 -39 97t-110 36h-56v67h52q67 0 101 32.5t34 88.5q0 55 -36.5 88t-100.5 33q-68 0 -109 -37t-49 -98h-82q6 89 70.5 147t171.5 58q101 0 162 -53t61 -134q0 -58 -32.5 -98t-88.5 -55 q64 -14 103.5 -59.5t39.5 -115.5q0 -96 -67.5 -150t-182.5 -54q-119 0 -189 59.5t-75 155.5zM176 0l1057 1464h92l-1057 -1464h-92zM768 152v32l336 518h117v-481h96v-69h-96v-152h-88v152h-365zM872 221h263v414z" />
<glyph unicode="&#xbf;" horiz-adv-x="976" d="M100 72q0 30 5.5 59.5t11 50.5t22 48.5t24 41t33.5 42.5t33.5 37.5t40 41l39.5 39.5q34 34 44 44.5t37 39.5t36.5 42.5t26.5 40.5t23.5 47t12 47.5t5.5 56.5v108h98v-117q0 -48 -12 -92t-26 -74t-47.5 -71t-53 -61.5t-66.5 -67.5q-49 -48 -70.5 -71t-51.5 -63t-42 -79.5 t-12 -85.5q0 -109 68 -174.5t200 -65.5q134 0 220 82.5t96 224.5h104q-11 -180 -126.5 -289.5t-295.5 -109.5q-184 0 -280.5 93.5t-96.5 234.5zM457 1149q0 35 25.5 60.5t62.5 25.5q35 0 60.5 -25.5t25.5 -60.5q0 -37 -25.5 -62.5t-60.5 -25.5q-37 0 -62.5 25.5t-25.5 62.5z " />
<glyph unicode="&#xc0;" horiz-adv-x="1339" d="M68 0l526 1464h151l527 -1464h-115l-162 449h-659l-160 -449h-108zM369 541h594l-297 829zM451 1829h135l131 -250h-86z" />
<glyph unicode="&#xc1;" horiz-adv-x="1339" d="M68 0l526 1464h151l527 -1464h-115l-162 449h-659l-160 -449h-108zM369 541h594l-297 829zM604 1579l131 250h135l-180 -250h-86z" />
<glyph unicode="&#xc2;" horiz-adv-x="1339" d="M68 0l526 1464h151l527 -1464h-115l-162 449h-659l-160 -449h-108zM369 541h594l-297 829zM387 1579l225 250h103l221 -250h-86l-188 160l-191 -160h-84z" />
<glyph unicode="&#xc3;" horiz-adv-x="1339" d="M68 0l526 1464h151l527 -1464h-115l-162 449h-659l-160 -449h-108zM358 1583q12 96 61 149.5t118 53.5q32 0 69 -17t64.5 -37.5t60.5 -37.5t57 -17q35 0 61.5 30t33.5 81h82q-12 -96 -60.5 -149.5t-116.5 -53.5q-42 0 -89.5 27.5t-90 54.5t-71.5 27q-36 0 -62 -29.5 t-33 -81.5h-84zM369 541h594l-297 829z" />
<glyph unicode="&#xc4;" horiz-adv-x="1339" d="M68 0l526 1464h151l527 -1464h-115l-162 449h-659l-160 -449h-108zM369 541h594l-297 829zM401 1690q0 30 22 51.5t54 21.5q31 0 52.5 -21.5t21.5 -51.5q0 -31 -21.5 -53.5t-52.5 -22.5q-32 0 -54 22.5t-22 53.5zM772 1690q0 30 22 51.5t52 21.5t52 -21.5t22 -51.5 q0 -31 -21.5 -53.5t-52.5 -22.5t-52.5 22.5t-21.5 53.5z" />
<glyph unicode="&#xc5;" horiz-adv-x="1339" d="M68 0l526 1464h151l527 -1464h-115l-162 449h-659l-160 -449h-108zM369 541h594l-297 829zM461 1741q0 79 59.5 136.5t141.5 57.5q83 0 141.5 -57t58.5 -137t-58.5 -138.5t-141.5 -58.5q-82 0 -141.5 58.5t-59.5 138.5zM537 1741q0 -55 36 -93t89 -38q54 0 89 37.5 t35 93.5t-35 93.5t-89 37.5q-53 0 -89 -38t-36 -93z" />
<glyph unicode="&#xc6;" horiz-adv-x="1937" d="M59 0l744 1464h1005v-94h-727v-571h590v-94h-590v-611h764v-94h-878v451h-566l-225 -451h-117zM446 541h521v829h-105z" />
<glyph unicode="&#xc7;" horiz-adv-x="1484" d="M109 723v16q0 159 52.5 298t143 236.5t216 153.5t267.5 56q153 0 277.5 -51t208.5 -156t106 -252h-114q-34 179 -154 273t-321 94q-248 0 -407 -181t-159 -469v-16q0 -297 152.5 -471t413.5 -174q200 0 332 102t167 289h107q-39 -227 -197 -354t-391 -133l-61 -109 q81 19 143.5 -20.5t62.5 -128.5q0 -75 -55.5 -117.5t-138.5 -42.5t-136 44t-61 116h90q6 -37 33.5 -61.5t69.5 -24.5q46 0 74 24.5t28 65.5t-27 60.5t-65 19.5q-40 0 -74 -17l-53 43l84 150q-284 22 -449 221t-165 516z" />
<glyph unicode="&#xc8;" horiz-adv-x="1159" d="M188 0v1464h842v-94h-727v-571h590v-94h-590v-611h764v-94h-879zM401 1829h136l131 -250h-86z" />
<glyph unicode="&#xc9;" horiz-adv-x="1159" d="M188 0v1464h842v-94h-727v-571h590v-94h-590v-611h764v-94h-879zM555 1579l131 250h135l-180 -250h-86z" />
<glyph unicode="&#xca;" horiz-adv-x="1159" d="M188 0v1464h842v-94h-727v-571h590v-94h-590v-611h764v-94h-879zM338 1579l225 250h103l221 -250h-86l-189 160l-190 -160h-84z" />
<glyph unicode="&#xcb;" horiz-adv-x="1159" d="M188 0v1464h842v-94h-727v-571h590v-94h-590v-611h764v-94h-879zM352 1690q0 30 22 51.5t54 21.5q30 0 52 -21.5t22 -51.5q0 -31 -21.5 -53.5t-52.5 -22.5q-32 0 -54 22.5t-22 53.5zM723 1690q0 30 21.5 51.5t52.5 21.5q30 0 51.5 -21.5t21.5 -51.5q0 -31 -21.5 -53.5 t-51.5 -22.5q-31 0 -52.5 22.5t-21.5 53.5z" />
<glyph unicode="&#xcc;" horiz-adv-x="512" d="M45 1829h135l131 -250h-86zM199 0v1464h114v-1464h-114z" />
<glyph unicode="&#xcd;" horiz-adv-x="512" d="M199 0v1464h114v-1464h-114zM199 1579l131 250h135l-180 -250h-86z" />
<glyph unicode="&#xce;" horiz-adv-x="512" d="M-18 1579l225 250h102l221 -250h-86l-188 160l-190 -160h-84zM199 0v1464h114v-1464h-114z" />
<glyph unicode="&#xcf;" horiz-adv-x="512" d="M-4 1690q0 30 22 51.5t54 21.5q30 0 51.5 -21.5t21.5 -51.5q0 -31 -21.5 -53.5t-51.5 -22.5q-32 0 -54 22.5t-22 53.5zM199 0v1464h114v-1464h-114zM367 1690q0 30 21.5 51.5t51.5 21.5t52 -21.5t22 -51.5q0 -31 -21.5 -53.5t-52.5 -22.5q-30 0 -51.5 22.5t-21.5 53.5z " />
<glyph unicode="&#xd0;" horiz-adv-x="1427" d="M57 690v90h154v684h379q178 0 318 -54.5t229 -152t135.5 -227.5t46.5 -285v-18q0 -123 -27.5 -231.5t-86 -200t-144 -157t-207 -102t-268.5 -36.5h-375v690h-154zM326 94h256q154 0 273 46.5t194.5 131.5t114 200.5t38.5 256.5v16q0 138 -37 250t-111.5 197t-195 131.5 t-278.5 46.5h-254v-590h426v-90h-426v-596z" />
<glyph unicode="&#xd1;" horiz-adv-x="1460" d="M188 0v1464h156l819 -1306v1306h109v-1464h-135l-838 1337v-1337h-111zM449 1583q12 96 60.5 149.5t117.5 53.5q41 0 88 -27t90.5 -54.5t73.5 -27.5q35 0 61 30t33 81h82q-12 -96 -60 -149.5t-116 -53.5q-42 0 -89.5 27.5t-90.5 54.5t-72 27q-36 0 -62 -29.5t-33 -81.5 h-83z" />
<glyph unicode="&#xd2;" d="M109 723v16q0 154 54 291t147 236t226 157t285 58t285.5 -57.5t227 -156.5t147 -235t53.5 -289v-16q0 -205 -91 -375t-254 -269t-364 -99q-205 0 -369.5 99t-255.5 267.5t-91 372.5zM225 725q0 -183 78.5 -331t216 -231t305.5 -83q172 0 307 83.5t209 231.5t74 334v16 q0 178 -73 323.5t-209.5 231.5t-311.5 86q-176 0 -312.5 -84t-210 -230.5t-73.5 -330.5v-16zM608 1829h135l131 -250h-86z" />
<glyph unicode="&#xd3;" d="M109 723v16q0 154 54 291t147 236t226 157t285 58t285.5 -57.5t227 -156.5t147 -235t53.5 -289v-16q0 -205 -91 -375t-254 -269t-364 -99q-205 0 -369.5 99t-255.5 267.5t-91 372.5zM225 725q0 -183 78.5 -331t216 -231t305.5 -83q172 0 307 83.5t209 231.5t74 334v16 q0 178 -73 323.5t-209.5 231.5t-311.5 86q-176 0 -312.5 -84t-210 -230.5t-73.5 -330.5v-16zM762 1579l131 250h135l-180 -250h-86z" />
<glyph unicode="&#xd4;" d="M109 723v16q0 154 54 291t147 236t226 157t285 58t285.5 -57.5t227 -156.5t147 -235t53.5 -289v-16q0 -205 -91 -375t-254 -269t-364 -99q-205 0 -369.5 99t-255.5 267.5t-91 372.5zM225 725q0 -183 78.5 -331t216 -231t305.5 -83q172 0 307 83.5t209 231.5t74 334v16 q0 178 -73 323.5t-209.5 231.5t-311.5 86q-176 0 -312.5 -84t-210 -230.5t-73.5 -330.5v-16zM545 1579l225 250h102l222 -250h-86l-189 160l-190 -160h-84z" />
<glyph unicode="&#xd5;" d="M109 723v16q0 154 54 291t147 236t226 157t285 58t285.5 -57.5t227 -156.5t147 -235t53.5 -289v-16q0 -205 -91 -375t-254 -269t-364 -99q-205 0 -369.5 99t-255.5 267.5t-91 372.5zM225 725q0 -183 78.5 -331t216 -231t305.5 -83q172 0 307 83.5t209 231.5t74 334v16 q0 178 -73 323.5t-209.5 231.5t-311.5 86q-176 0 -312.5 -84t-210 -230.5t-73.5 -330.5v-16zM516 1583q12 96 60.5 149.5t117.5 53.5q41 0 88 -27t90.5 -54.5t73.5 -27.5q35 0 61 30t33 81h82q-12 -96 -60 -149.5t-116 -53.5q-42 0 -89.5 27.5t-90.5 54.5t-72 27 q-36 0 -61.5 -29.5t-32.5 -81.5h-84z" />
<glyph unicode="&#xd6;" d="M109 723v16q0 154 54 291t147 236t226 157t285 58t285.5 -57.5t227 -156.5t147 -235t53.5 -289v-16q0 -205 -91 -375t-254 -269t-364 -99q-205 0 -369.5 99t-255.5 267.5t-91 372.5zM225 725q0 -183 78.5 -331t216 -231t305.5 -83q172 0 307 83.5t209 231.5t74 334v16 q0 178 -73 323.5t-209.5 231.5t-311.5 86q-176 0 -312.5 -84t-210 -230.5t-73.5 -330.5v-16zM559 1690q0 30 22 51.5t54 21.5q31 0 52.5 -21.5t21.5 -51.5q0 -31 -21.5 -53.5t-52.5 -22.5q-32 0 -54 22.5t-22 53.5zM930 1690q0 30 22 51.5t52 21.5t51.5 -21.5t21.5 -51.5 q0 -31 -21.5 -53.5t-51.5 -22.5q-31 0 -52.5 22.5t-21.5 53.5z" />
<glyph unicode="&#xd7;" horiz-adv-x="989" d="M92 356l330 328l-330 330l64 65l329 -329l330 329l64 -65l-330 -330l330 -328l-64 -63l-330 328l-329 -328z" />
<glyph unicode="&#xd8;" d="M84 10l199 219q-174 205 -174 494v16q0 154 54 291t147 236t226 157t285 58q259 0 453 -160l174 192l59 -61l-172 -188q95 -101 147 -235.5t52 -285.5v-16q0 -205 -91 -375t-254 -269t-364 -99q-286 0 -483 184l-197 -217zM225 725q0 -245 129 -416l852 938 q-155 139 -385 139q-176 0 -312.5 -84t-210 -230.5t-73.5 -330.5v-16zM412 244q167 -164 413 -164q172 0 307 83.5t209 231.5t74 334v16q0 268 -149 443z" />
<glyph unicode="&#xd9;" horiz-adv-x="1396" d="M168 524v940h113v-927q0 -232 103.5 -343.5t309.5 -111.5q215 0 318.5 113t103.5 368v901h115v-917q0 -268 -135 -414.5t-404 -146.5q-250 0 -387 139t-137 399zM487 1829h136l131 -250h-86z" />
<glyph unicode="&#xda;" horiz-adv-x="1396" d="M168 524v940h113v-927q0 -232 103.5 -343.5t309.5 -111.5q215 0 318.5 113t103.5 368v901h115v-917q0 -268 -135 -414.5t-404 -146.5q-250 0 -387 139t-137 399zM641 1579l131 250h135l-180 -250h-86z" />
<glyph unicode="&#xdb;" horiz-adv-x="1396" d="M168 524v940h113v-927q0 -232 103.5 -343.5t309.5 -111.5q215 0 318.5 113t103.5 368v901h115v-917q0 -268 -135 -414.5t-404 -146.5q-250 0 -387 139t-137 399zM424 1579l225 250h103l221 -250h-86l-189 160l-190 -160h-84z" />
<glyph unicode="&#xdc;" horiz-adv-x="1396" d="M168 524v940h113v-927q0 -232 103.5 -343.5t309.5 -111.5q215 0 318.5 113t103.5 368v901h115v-917q0 -268 -135 -414.5t-404 -146.5q-250 0 -387 139t-137 399zM438 1690q0 30 22 51.5t54 21.5q30 0 52 -21.5t22 -51.5q0 -31 -21.5 -53.5t-52.5 -22.5q-32 0 -54 22.5 t-22 53.5zM809 1690q0 30 21.5 51.5t52.5 21.5q30 0 51.5 -21.5t21.5 -51.5q0 -31 -21.5 -53.5t-51.5 -22.5q-31 0 -52.5 22.5t-21.5 53.5z" />
<glyph unicode="&#xdd;" horiz-adv-x="1183" d="M47 1464h127l434 -716l414 716h115l-473 -815v-649h-115v651zM541 1579l131 250h135l-180 -250h-86z" />
<glyph unicode="&#xde;" horiz-adv-x="1163" d="M188 0v1464h115v-295h272q111 0 199 -21.5t157 -67.5t106.5 -125t37.5 -187v-8q0 -109 -37.5 -189.5t-106.5 -127.5t-157 -69t-199 -22h-272v-352h-115zM303 444h279q379 0 379 316v8q0 166 -97.5 236.5t-281.5 70.5h-279v-631z" />
<glyph unicode="&#xdf;" horiz-adv-x="1167" d="M168 0v1171q0 188 116 303t291 115q176 0 279.5 -96.5t103.5 -249.5v-8q0 -113 -70 -205.5t-192 -126.5q164 -33 275.5 -160t111.5 -303v-12q0 -97 -24 -174t-64.5 -126.5t-96.5 -82t-116 -46t-127 -13.5q-106 0 -192 32v95q86 -35 188 -35q64 0 117.5 17t101 54.5 t74.5 108t27 168.5v14q0 181 -126 298t-317 112v94q82 -1 147 23.5t102.5 67t57 93.5t19.5 107v8q0 119 -72.5 187.5t-206.5 68.5q-139 0 -219 -87.5t-80 -235.5v-1176h-108z" />
<glyph unicode="&#xe0;" horiz-adv-x="1083" d="M90 289q0 90 40.5 154.5t112.5 100.5t158 52t191 16h223v97q0 150 -64.5 218t-205.5 68q-126 0 -204.5 -56t-96.5 -171h-107q9 82 46 144.5t93.5 100t125.5 56t147 18.5q176 0 275.5 -91t99.5 -287v-709h-109v164q-118 -180 -362 -180q-164 0 -263.5 78.5t-99.5 226.5z M199 289q0 -104 66 -160.5t196 -56.5q149 0 251.5 77.5t102.5 196.5v182h-219q-71 0 -127.5 -6t-108.5 -22.5t-86 -43t-54.5 -69t-20.5 -98.5zM330 1540h133l139 -301h-84z" />
<glyph unicode="&#xe1;" horiz-adv-x="1083" d="M90 289q0 90 40.5 154.5t112.5 100.5t158 52t191 16h223v97q0 150 -64.5 218t-205.5 68q-126 0 -204.5 -56t-96.5 -171h-107q9 82 46 144.5t93.5 100t125.5 56t147 18.5q176 0 275.5 -91t99.5 -287v-709h-109v164q-118 -180 -362 -180q-164 0 -263.5 78.5t-99.5 226.5z M199 289q0 -104 66 -160.5t196 -56.5q149 0 251.5 77.5t102.5 196.5v182h-219q-71 0 -127.5 -6t-108.5 -22.5t-86 -43t-54.5 -69t-20.5 -98.5zM492 1239l139 301h133l-189 -301h-83z" />
<glyph unicode="&#xe2;" horiz-adv-x="1083" d="M90 289q0 90 40.5 154.5t112.5 100.5t158 52t191 16h223v97q0 150 -64.5 218t-205.5 68q-126 0 -204.5 -56t-96.5 -171h-107q9 82 46 144.5t93.5 100t125.5 56t147 18.5q176 0 275.5 -91t99.5 -287v-709h-109v164q-118 -180 -362 -180q-164 0 -263.5 78.5t-99.5 226.5z M199 289q0 -104 66 -160.5t196 -56.5q149 0 251.5 77.5t102.5 196.5v182h-219q-71 0 -127.5 -6t-108.5 -22.5t-86 -43t-54.5 -69t-20.5 -98.5zM262 1239l225 277h103l221 -277h-86l-188 184l-191 -184h-84z" />
<glyph unicode="&#xe3;" horiz-adv-x="1083" d="M90 289q0 90 40.5 154.5t112.5 100.5t158 52t191 16h223v97q0 150 -64.5 218t-205.5 68q-126 0 -204.5 -56t-96.5 -171h-107q9 82 46 144.5t93.5 100t125.5 56t147 18.5q176 0 275.5 -91t99.5 -287v-709h-109v164q-118 -180 -362 -180q-164 0 -263.5 78.5t-99.5 226.5z M199 289q0 -104 66 -160.5t196 -56.5q149 0 251.5 77.5t102.5 196.5v182h-219q-71 0 -127.5 -6t-108.5 -22.5t-86 -43t-54.5 -69t-20.5 -98.5zM246 1262q12 95 60.5 148.5t117.5 53.5q41 0 88.5 -27t91 -54t72.5 -27q34 0 60.5 28.5t33.5 79.5h82q-12 -95 -60 -148.5 t-116 -53.5q-42 0 -90 27t-91.5 54t-72.5 27q-33 0 -59 -29t-33 -79h-84z" />
<glyph unicode="&#xe4;" horiz-adv-x="1083" d="M90 289q0 90 40.5 154.5t112.5 100.5t158 52t191 16h223v97q0 150 -64.5 218t-205.5 68q-126 0 -204.5 -56t-96.5 -171h-107q9 82 46 144.5t93.5 100t125.5 56t147 18.5q176 0 275.5 -91t99.5 -287v-709h-109v164q-118 -180 -362 -180q-164 0 -263.5 78.5t-99.5 226.5z M199 289q0 -104 66 -160.5t196 -56.5q149 0 251.5 77.5t102.5 196.5v182h-219q-71 0 -127.5 -6t-108.5 -22.5t-86 -43t-54.5 -69t-20.5 -98.5zM303 1378q0 31 22 52.5t54 21.5q31 0 52.5 -21.5t21.5 -52.5t-21.5 -53t-52.5 -22q-32 0 -54 22t-22 53zM645 1378 q0 31 21.5 52.5t52.5 21.5q32 0 54 -21.5t22 -52.5t-22 -53t-54 -22q-31 0 -52.5 22t-21.5 53z" />
<glyph unicode="&#xe5;" horiz-adv-x="1083" d="M90 289q0 90 40.5 154.5t112.5 100.5t158 52t191 16h223v97q0 150 -64.5 218t-205.5 68q-126 0 -204.5 -56t-96.5 -171h-107q9 82 46 144.5t93.5 100t125.5 56t147 18.5q176 0 275.5 -91t99.5 -287v-709h-109v164q-118 -180 -362 -180q-164 0 -263.5 78.5t-99.5 226.5z M199 289q0 -104 66 -160.5t196 -56.5q149 0 251.5 77.5t102.5 196.5v182h-219q-71 0 -127.5 -6t-108.5 -22.5t-86 -43t-54.5 -69t-20.5 -98.5zM348 1425q0 80 59.5 138.5t141.5 58.5q83 0 142 -58.5t59 -138.5t-59 -137t-142 -57q-82 0 -141.5 57.5t-59.5 136.5zM424 1425 q0 -55 36 -92t89 -37q54 0 89.5 36.5t35.5 92.5q0 57 -35.5 94t-89.5 37q-53 0 -89 -37t-36 -94z" />
<glyph unicode="&#xe6;" horiz-adv-x="1837" d="M90 287q0 73 27 129.5t72 93t110 60t135.5 33t153.5 9.5h231v95q0 150 -66.5 219t-207.5 69q-126 0 -204.5 -56t-96.5 -171h-107q18 159 133.5 239t278.5 80q287 0 350 -233q61 110 163 171.5t232 61.5q96 0 178 -32t145 -95t98.5 -164t35.5 -231v-37h-825 q3 -218 100 -335t283 -117q132 0 215.5 56t109.5 167h109q-32 -151 -148.5 -233t-287.5 -82q-151 0 -261 70.5t-167 197.5q-51 -132 -162.5 -200t-263.5 -68q-164 0 -263.5 77.5t-99.5 225.5zM199 287q0 -104 66 -159.5t198 -55.5q151 0 253.5 82t102.5 217v157h-229 q-89 0 -156 -11t-122 -37t-84 -74.5t-29 -118.5zM928 612h712q-7 192 -97.5 287.5t-248.5 95.5q-152 0 -251.5 -104t-114.5 -279z" />
<glyph unicode="&#xe7;" horiz-adv-x="1138" d="M88 524v17q0 120 40.5 223t109.5 173.5t163 110t199 39.5q112 0 206 -37.5t160.5 -120t80.5 -198.5h-107q-19 129 -113 196.5t-227 67.5q-172 0 -285.5 -123.5t-113.5 -330.5v-17q0 -207 112.5 -327.5t286.5 -120.5q139 0 237.5 77.5t118.5 217.5h101 q-22 -170 -144.5 -276t-302.5 -111l-61 -109q81 19 144 -20.5t63 -128.5q0 -75 -56 -117.5t-139 -42.5t-135.5 43.5t-60.5 116.5h90q6 -37 33 -61.5t69 -24.5q46 0 74 24.5t28 65.5t-27 60.5t-65 19.5q-39 0 -73 -17l-54 43l86 154q-193 25 -315.5 170t-122.5 364z" />
<glyph unicode="&#xe8;" horiz-adv-x="1134" d="M88 524v17q0 242 138 394t354 152q98 0 182 -32.5t149 -95t101.5 -164t36.5 -230.5v-39h-848q3 -217 104.5 -333.5t290.5 -116.5q136 0 222.5 56t113.5 167h108q-33 -151 -151 -233t-293 -82q-231 0 -369.5 148.5t-138.5 391.5zM205 614h731q-7 190 -101 285.5t-255 95.5 q-156 0 -258 -103.5t-117 -277.5zM358 1540h134l139 -301h-84z" />
<glyph unicode="&#xe9;" horiz-adv-x="1134" d="M88 524v17q0 242 138 394t354 152q98 0 182 -32.5t149 -95t101.5 -164t36.5 -230.5v-39h-848q3 -217 104.5 -333.5t290.5 -116.5q136 0 222.5 56t113.5 167h108q-33 -151 -151 -233t-293 -82q-231 0 -369.5 148.5t-138.5 391.5zM205 614h731q-7 190 -101 285.5t-255 95.5 q-156 0 -258 -103.5t-117 -277.5zM520 1239l139 301h134l-189 -301h-84z" />
<glyph unicode="&#xea;" horiz-adv-x="1134" d="M88 524v17q0 242 138 394t354 152q98 0 182 -32.5t149 -95t101.5 -164t36.5 -230.5v-39h-848q3 -217 104.5 -333.5t290.5 -116.5q136 0 222.5 56t113.5 167h108q-33 -151 -151 -233t-293 -82q-231 0 -369.5 148.5t-138.5 391.5zM205 614h731q-7 190 -101 285.5t-255 95.5 q-156 0 -258 -103.5t-117 -277.5zM303 1239l225 277h103l221 -277h-86l-188 184l-191 -184h-84z" />
<glyph unicode="&#xeb;" horiz-adv-x="1134" d="M88 524v17q0 242 138 394t354 152q98 0 182 -32.5t149 -95t101.5 -164t36.5 -230.5v-39h-848q3 -217 104.5 -333.5t290.5 -116.5q136 0 222.5 56t113.5 167h108q-33 -151 -151 -233t-293 -82q-231 0 -369.5 148.5t-138.5 391.5zM205 614h731q-7 190 -101 285.5t-255 95.5 q-156 0 -258 -103.5t-117 -277.5zM332 1378q0 31 22 52.5t54 21.5q31 0 52 -21.5t21 -52.5t-21 -53t-52 -22q-32 0 -54 22t-22 53zM674 1378q0 31 21.5 52.5t52.5 21.5q32 0 53.5 -21.5t21.5 -52.5t-21.5 -53t-53.5 -22q-31 0 -52.5 22t-21.5 53z" />
<glyph unicode="&#xec;" horiz-adv-x="452" d="M2 1540h133l139 -301h-84zM172 0v1071h109v-1071h-109z" />
<glyph unicode="&#xed;" horiz-adv-x="452" d="M172 0v1071h109v-1071h-109zM176 1239l139 301h134l-189 -301h-84z" />
<glyph unicode="&#xee;" horiz-adv-x="452" d="M-47 1239l225 277h103l221 -277h-86l-189 184l-190 -184h-84zM172 0v1071h109v-1071h-109z" />
<glyph unicode="&#xef;" horiz-adv-x="452" d="M0 1378q0 31 21.5 52.5t52.5 21.5t53.5 -21.5t22.5 -52.5t-22.5 -53t-53.5 -22t-52.5 22t-21.5 53zM172 0v1071h109v-1071h-109zM303 1378q0 31 22.5 52.5t53.5 21.5t52.5 -21.5t21.5 -52.5t-21.5 -53t-52.5 -22t-53.5 22t-22.5 53z" />
<glyph unicode="&#xf0;" horiz-adv-x="1216" d="M88 526v17q0 118 40.5 220.5t108 173t156.5 110.5t185 40q231 0 368 -186q-108 237 -350 451l-270 -156l-39 64l248 143q-106 88 -254 180h145q102 -57 197 -129l200 119l39 -68l-178 -102q89 -75 163 -161t138 -190.5t100.5 -229t36.5 -253.5v-37q0 -119 -40.5 -222 t-110 -174t-165 -111.5t-202.5 -40.5q-108 0 -203.5 40.5t-164 112t-108.5 172.5t-40 217zM201 526q0 -203 113.5 -326.5t289.5 -123.5q177 0 291.5 123.5t114.5 328.5v27q0 199 -114.5 319.5t-295.5 120.5q-171 0 -285 -123.5t-114 -328.5v-17z" />
<glyph unicode="&#xf1;" horiz-adv-x="1193" d="M168 0v1071h108v-209q39 94 141.5 159.5t237.5 65.5q179 0 280 -104t101 -324v-659h-108v666q0 327 -297 327q-92 0 -171 -38t-131.5 -118t-52.5 -188v-649h-108zM291 1262q12 95 60.5 148.5t117.5 53.5q41 0 88.5 -27t91 -54t72.5 -27q34 0 60.5 28.5t33.5 79.5h82 q-12 -95 -60 -148.5t-116 -53.5q-42 0 -90 27t-91.5 54t-72.5 27q-33 0 -59 -29t-33 -79h-84z" />
<glyph unicode="&#xf2;" horiz-adv-x="1210" d="M88 526v17q0 118 40.5 220.5t110.5 173t165 110.5t202 40q108 0 202.5 -39.5t164 -109t109.5 -171.5t40 -222v-17q0 -239 -149 -391.5t-369 -152.5q-108 0 -203.5 40.5t-164 112t-108.5 172.5t-40 217zM201 526q0 -203 114 -326.5t291 -123.5q175 0 289.5 123.5 t114.5 326.5v17q0 207 -114.5 329.5t-289.5 122.5q-176 0 -290.5 -123.5t-114.5 -328.5v-17zM385 1540h133l139 -301h-84z" />
<glyph unicode="&#xf3;" horiz-adv-x="1210" d="M88 526v17q0 118 40.5 220.5t110.5 173t165 110.5t202 40q108 0 202.5 -39.5t164 -109t109.5 -171.5t40 -222v-17q0 -239 -149 -391.5t-369 -152.5q-108 0 -203.5 40.5t-164 112t-108.5 172.5t-40 217zM201 526q0 -203 114 -326.5t291 -123.5q175 0 289.5 123.5 t114.5 326.5v17q0 207 -114.5 329.5t-289.5 122.5q-176 0 -290.5 -123.5t-114.5 -328.5v-17zM547 1239l139 301h133l-188 -301h-84z" />
<glyph unicode="&#xf4;" horiz-adv-x="1210" d="M88 526v17q0 118 40.5 220.5t110.5 173t165 110.5t202 40q108 0 202.5 -39.5t164 -109t109.5 -171.5t40 -222v-17q0 -239 -149 -391.5t-369 -152.5q-108 0 -203.5 40.5t-164 112t-108.5 172.5t-40 217zM201 526q0 -203 114 -326.5t291 -123.5q175 0 289.5 123.5 t114.5 326.5v17q0 207 -114.5 329.5t-289.5 122.5q-176 0 -290.5 -123.5t-114.5 -328.5v-17zM330 1239l225 277h102l222 -277h-86l-189 184l-190 -184h-84z" />
<glyph unicode="&#xf5;" horiz-adv-x="1210" d="M88 526v17q0 118 40.5 220.5t110.5 173t165 110.5t202 40q108 0 202.5 -39.5t164 -109t109.5 -171.5t40 -222v-17q0 -239 -149 -391.5t-369 -152.5q-108 0 -203.5 40.5t-164 112t-108.5 172.5t-40 217zM201 526q0 -203 114 -326.5t291 -123.5q175 0 289.5 123.5 t114.5 326.5v17q0 207 -114.5 329.5t-289.5 122.5q-176 0 -290.5 -123.5t-114.5 -328.5v-17zM301 1262q12 95 60.5 148.5t117.5 53.5q41 0 88.5 -27t91 -54t72.5 -27q34 0 60.5 28.5t33.5 79.5h82q-12 -95 -60 -148.5t-116 -53.5q-42 0 -90 27t-91.5 54t-72.5 27 q-33 0 -59 -29t-33 -79h-84z" />
<glyph unicode="&#xf6;" horiz-adv-x="1210" d="M88 526v17q0 118 40.5 220.5t110.5 173t165 110.5t202 40q108 0 202.5 -39.5t164 -109t109.5 -171.5t40 -222v-17q0 -239 -149 -391.5t-369 -152.5q-108 0 -203.5 40.5t-164 112t-108.5 172.5t-40 217zM201 526q0 -203 114 -326.5t291 -123.5q175 0 289.5 123.5 t114.5 326.5v17q0 207 -114.5 329.5t-289.5 122.5q-176 0 -290.5 -123.5t-114.5 -328.5v-17zM358 1378q0 31 22 52.5t54 21.5q31 0 52.5 -21.5t21.5 -52.5t-21.5 -53t-52.5 -22q-32 0 -54 22t-22 53zM700 1378q0 31 21.5 52.5t52.5 21.5q32 0 54 -21.5t22 -52.5t-22 -53 t-54 -22q-31 0 -52.5 22t-21.5 53z" />
<glyph unicode="&#xf7;" horiz-adv-x="1044" d="M74 653v95h897v-95h-897zM434 338q0 35 25.5 60.5t62.5 25.5q35 0 60.5 -25.5t25.5 -60.5q0 -37 -25.5 -62.5t-60.5 -25.5q-37 0 -62.5 25.5t-25.5 62.5zM434 1065q0 35 25.5 60.5t62.5 25.5q35 0 60.5 -25.5t25.5 -60.5q0 -37 -25.5 -62.5t-60.5 -25.5q-37 0 -62.5 25.5 t-25.5 62.5z" />
<glyph unicode="&#xf8;" horiz-adv-x="1210" d="M63 0l148 164q-123 148 -123 362v17q0 118 40.5 220.5t110.5 173t165 110.5t202 40q192 0 332 -118l131 147l59 -51l-135 -150q129 -152 129 -370v-17q0 -239 -149 -391.5t-369 -152.5q-197 0 -338 122l-141 -157zM201 526q0 -168 80 -284l589 653q-106 100 -264 100 q-176 0 -290.5 -123.5t-114.5 -328.5v-17zM332 180q110 -104 274 -104q175 0 289.5 123.5t114.5 326.5v17q0 172 -86 295z" />
<glyph unicode="&#xf9;" horiz-adv-x="1185" d="M158 393v678h108v-672q0 -321 293 -321q90 0 168 37.5t130 117t52 187.5v651h109v-1071h-109v205q-39 -93 -139.5 -157t-234.5 -64q-176 0 -276.5 99t-100.5 310zM373 1540h133l139 -301h-84z" />
<glyph unicode="&#xfa;" horiz-adv-x="1185" d="M158 393v678h108v-672q0 -321 293 -321q90 0 168 37.5t130 117t52 187.5v651h109v-1071h-109v205q-39 -93 -139.5 -157t-234.5 -64q-176 0 -276.5 99t-100.5 310zM535 1239l139 301h133l-189 -301h-83z" />
<glyph unicode="&#xfb;" horiz-adv-x="1185" d="M158 393v678h108v-672q0 -321 293 -321q90 0 168 37.5t130 117t52 187.5v651h109v-1071h-109v205q-39 -93 -139.5 -157t-234.5 -64q-176 0 -276.5 99t-100.5 310zM317 1239l226 277h102l221 -277h-86l-188 184l-191 -184h-84z" />
<glyph unicode="&#xfc;" horiz-adv-x="1185" d="M158 393v678h108v-672q0 -321 293 -321q90 0 168 37.5t130 117t52 187.5v651h109v-1071h-109v205q-39 -93 -139.5 -157t-234.5 -64q-176 0 -276.5 99t-100.5 310zM346 1378q0 31 22 52.5t54 21.5q31 0 52.5 -21.5t21.5 -52.5t-21.5 -53t-52.5 -22q-32 0 -54 22t-22 53z M688 1378q0 31 21.5 52.5t52.5 21.5q32 0 54 -21.5t22 -52.5t-22 -53t-54 -22q-31 0 -52.5 22t-21.5 53z" />
<glyph unicode="&#xfd;" horiz-adv-x="1040" d="M51 1071h117l367 -854l342 854h110l-594 -1444h-112l194 465zM469 1239l139 301h133l-188 -301h-84z" />
<glyph unicode="&#xfe;" horiz-adv-x="1253" d="M168 -373v1956h108v-762q50 111 162.5 188.5t247.5 77.5q207 0 343 -147.5t136 -392.5v-17q0 -248 -135 -397t-346 -149q-149 0 -254.5 75.5t-153.5 184.5v-617h-108zM274 526q0 -212 114 -331t288 -119q172 0 274.5 119t102.5 331v17q0 213 -108 332.5t-269 119.5 q-81 0 -153 -29.5t-128 -85t-88.5 -143t-32.5 -194.5v-17z" />
<glyph unicode="&#xff;" horiz-adv-x="1040" d="M51 1071h117l367 -854l342 854h110l-594 -1444h-112l194 465zM285 1378q0 31 21.5 52.5t53.5 21.5q31 0 52.5 -21.5t21.5 -52.5t-21.5 -53t-52.5 -22q-32 0 -53.5 22t-21.5 53zM627 1378q0 31 21 52.5t52 21.5q32 0 54 -21.5t22 -52.5t-22 -53t-54 -22q-31 0 -52 22 t-21 53z" />
<glyph unicode="&#x152;" horiz-adv-x="1957" d="M109 719v16q0 155 45 285.5t132.5 230.5t230 156.5t325.5 56.5h987v-94h-696v-571h559v-94h-559v-611h733v-94h-1028q-178 0 -318 54.5t-229 152t-135.5 227.5t-46.5 285zM225 719q0 -138 37 -250t111.5 -197t195.5 -131.5t279 -46.5h172v1276h-174q-154 0 -273 -46.5 t-194.5 -131.5t-114.5 -200.5t-39 -256.5v-16z" />
<glyph unicode="&#x153;" horiz-adv-x="2054" d="M88 526v17q0 118 40.5 220.5t110.5 173t165 110.5t202 40q158 0 280 -82t179 -227q53 144 167 226.5t269 82.5q98 0 182 -32.5t148 -95.5t100.5 -164t36.5 -230v-39h-848q5 -217 107 -333.5t291 -116.5q134 0 220.5 56t112.5 167h109q-32 -151 -150.5 -233t-293.5 -82 q-167 0 -284 82t-169 227q-57 -143 -179.5 -226t-279.5 -83q-108 0 -203.5 40.5t-164 112t-108.5 172.5t-40 217zM201 526q0 -203 114 -326.5t291 -123.5q175 0 289.5 123.5t114.5 326.5v17q0 207 -114.5 329.5t-289.5 122.5q-176 0 -290.5 -123.5t-114.5 -328.5v-17z M1124 614h734q-7 190 -102 285.5t-255 95.5q-156 0 -259 -103.5t-118 -277.5z" />
<glyph unicode="&#x178;" horiz-adv-x="1183" d="M47 1464h127l434 -716l414 716h115l-473 -815v-649h-115v651zM338 1690q0 30 22 51.5t54 21.5q30 0 51.5 -21.5t21.5 -51.5q0 -31 -21.5 -53.5t-51.5 -22.5q-32 0 -54 22.5t-22 53.5zM709 1690q0 30 21.5 51.5t51.5 21.5t52 -21.5t22 -51.5q0 -31 -21.5 -53.5 t-52.5 -22.5q-30 0 -51.5 22.5t-21.5 53.5z" />
<glyph unicode="&#x2c6;" horiz-adv-x="819" d="M135 1239l225 277h103l221 -277h-86l-188 184l-191 -184h-84z" />
<glyph unicode="&#x2dc;" horiz-adv-x="819" d="M111 1262q12 95 60.5 148.5t117.5 53.5q41 0 88.5 -27t91 -54t72.5 -27q34 0 60.5 28.5t33.5 79.5h82q-12 -95 -60 -148.5t-116 -53.5q-42 0 -90 27t-91.5 54t-72.5 27q-33 0 -59 -29t-33 -79h-84z" />
<glyph unicode="&#x2000;" horiz-adv-x="967" />
<glyph unicode="&#x2001;" horiz-adv-x="1935" />
<glyph unicode="&#x2002;" horiz-adv-x="967" />
<glyph unicode="&#x2003;" horiz-adv-x="1935" />
<glyph unicode="&#x2004;" horiz-adv-x="645" />
<glyph unicode="&#x2005;" horiz-adv-x="483" />
<glyph unicode="&#x2006;" horiz-adv-x="322" />
<glyph unicode="&#x2007;" horiz-adv-x="322" />
<glyph unicode="&#x2008;" horiz-adv-x="241" />
<glyph unicode="&#x2009;" horiz-adv-x="387" />
<glyph unicode="&#x200a;" horiz-adv-x="107" />
<glyph unicode="&#x2010;" horiz-adv-x="681" d="M127 516v102h428v-102h-428z" />
<glyph unicode="&#x2011;" horiz-adv-x="681" d="M127 516v102h428v-102h-428z" />
<glyph unicode="&#x2012;" horiz-adv-x="681" d="M127 516v102h428v-102h-428z" />
<glyph unicode="&#x2013;" horiz-adv-x="1030" d="M94 522v92h842v-92h-842z" />
<glyph unicode="&#x2014;" horiz-adv-x="1779" d="M94 522v92h1592v-92h-1592z" />
<glyph unicode="&#x2018;" horiz-adv-x="438" d="M86 1128l188 351l70 -33l-154 -365z" />
<glyph unicode="&#x2019;" horiz-adv-x="438" d="M94 1116l154 363l104 -45l-188 -353z" />
<glyph unicode="&#x201a;" horiz-adv-x="438" d="M94 -143l154 362l104 -45l-188 -352z" />
<glyph unicode="&#x201c;" horiz-adv-x="724" d="M86 1128l188 351l70 -33l-154 -365zM373 1128l188 351l70 -33l-154 -365z" />
<glyph unicode="&#x201d;" horiz-adv-x="724" d="M94 1116l154 363l104 -45l-188 -353zM379 1116l156 363l104 -45l-188 -353z" />
<glyph unicode="&#x201e;" horiz-adv-x="724" d="M94 -143l154 362l104 -45l-188 -352zM379 -143l156 362l104 -45l-188 -352z" />
<glyph unicode="&#x2022;" horiz-adv-x="647" d="M106 625q0 91 63 154t155 63q93 0 155 -63t62 -154q0 -90 -62 -153.5t-155 -63.5q-92 0 -155 63.5t-63 153.5z" />
<glyph unicode="&#x2026;" horiz-adv-x="1427" d="M147 76q0 37 25.5 62.5t60.5 25.5q37 0 63 -25.5t26 -62.5q0 -35 -26 -60.5t-63 -25.5q-35 0 -60.5 25.5t-25.5 60.5zM627 76q0 37 25.5 62.5t60.5 25.5q37 0 62.5 -25.5t25.5 -62.5q0 -35 -25.5 -60.5t-62.5 -25.5q-35 0 -60.5 25.5t-25.5 60.5zM1106 76q0 37 25.5 62.5 t60.5 25.5q37 0 62.5 -25.5t25.5 -62.5q0 -35 -25.5 -60.5t-62.5 -25.5q-35 0 -60.5 25.5t-25.5 60.5z" />
<glyph unicode="&#x202f;" horiz-adv-x="387" />
<glyph unicode="&#x2039;" horiz-adv-x="593" d="M111 535l276 364h111l-271 -364l271 -365h-111z" />
<glyph unicode="&#x203a;" horiz-adv-x="593" d="M96 170l271 365l-271 364h111l276 -364l-276 -365h-111z" />
<glyph unicode="&#x205f;" horiz-adv-x="483" />
<glyph unicode="&#x20ac;" horiz-adv-x="1345" d="M66 553v78h139v200h-139v78h141q12 167 76 294.5t182.5 202.5t277.5 75q208 0 333.5 -112.5t150.5 -311.5h-109q-24 159 -119 245.5t-256 86.5q-189 0 -299.5 -129t-124.5 -351h517l-15 -78h-504v-200h465l-14 -78h-449q14 -223 123 -348t303 -125q168 0 268.5 93.5 t125.5 266.5h106q-26 -215 -157 -335.5t-343 -120.5q-238 0 -379 155.5t-159 413.5h-141z" />
<glyph unicode="&#x2122;" horiz-adv-x="1382" d="M61 1401v63h480v-63h-199v-582h-80v582h-201zM664 819v645h110l207 -508l205 508h110v-645h-77v547l-228 -547h-28l-228 547v-547h-71z" />
<glyph unicode="&#x25fc;" horiz-adv-x="1075" d="M0 0v1075h1075v-1075h-1075z" />
<glyph unicode="&#xfb01;" horiz-adv-x="1122" d="M53 979v92h162v193q0 163 79.5 244t215.5 81q72 0 113 -16v-92q-46 16 -111 16q-89 0 -138.5 -54.5t-49.5 -168.5v-203h299v-92h-299v-979h-109v979h-162zM815 1378q0 31 23 53.5t55 22.5t54 -22.5t22 -53.5q0 -32 -22 -55t-54 -23t-55 23t-23 55zM840 0v1071h108v-1071 h-108z" />
<glyph unicode="&#xfb02;" horiz-adv-x="1122" d="M53 979v92h162v193q0 163 79.5 244t215.5 81q72 0 113 -16v-92q-46 16 -111 16q-89 0 -138.5 -54.5t-49.5 -168.5v-203h299v-92h-299v-979h-109v979h-162zM840 0v1583h110v-1583h-110z" />
</font>
</defs>
</svg>
